<?xml version="1.0" standalone="no"?>
<!DOCTYPE svg PUBLIC "-//W3C//DTD SVG 20010904//EN"
 "http://www.w3.org/TR/2001/REC-SVG-20010904/DTD/svg10.dtd">
<svg version="1.0" xmlns="http://www.w3.org/2000/svg"
 width="1000.000000pt" height="604.000000pt" viewBox="0 0 1000.000000 604.000000"
 preserveAspectRatio="xMidYMid meet">

<g transform="translate(0.000000,604.000000) scale(0.100000,-0.100000)"
fill="#000000" stroke="none">
<path d="M3185 5804 c-415 -41 -712 -122 -1040 -283 -564 -278 -998 -712
-1276 -1276 -137 -279 -217 -541 -265 -870 -25 -168 -25 -552 0 -720 48 -329
128 -591 265 -870 278 -565 711 -998 1276 -1276 279 -137 541 -217 870 -265
168 -25 552 -25 720 0 329 48 591 128 870 265 565 278 998 711 1276 1276 137
279 217 541 265 870 25 168 25 552 0 720 -48 329 -128 591 -265 870 -278 564
-712 998 -1276 1276 -382 188 -748 276 -1175 283 -113 2 -223 2 -245 0z"/>
<path d="M9035 5803 c-689 -55 -1310 -339 -1785 -813 -435 -436 -703 -979
-796 -1615 -25 -168 -25 -552 0 -720 78 -533 282 -1006 604 -1405 492 -607
1236 -982 2035 -1026 l127 -7 0 2797 0 2796 -72 -2 c-40 -1 -91 -3 -113 -5z"/>
</g>
</svg>
