<?xml version="1.0" standalone="no"?>
<!DOCTYPE svg PUBLIC "-//W3C//DTD SVG 20010904//EN"
 "http://www.w3.org/TR/2001/REC-SVG-20010904/DTD/svg10.dtd">
<svg version="1.0" xmlns="http://www.w3.org/2000/svg"
 width="2313.000000pt" height="2313.000000pt" viewBox="0 0 2313.000000 2313.000000"
 preserveAspectRatio="xMidYMid meet">

<g transform="translate(0.000000,2313.000000) scale(0.100000,-0.100000)"
fill="#000000" stroke="none">
<path d="M11270 22481 c-50 -11 -192 -79 -307 -147 -211 -124 -391 -252 -823
-588 -602 -467 -809 -603 -1040 -680 -245 -82 -378 -78 -1250 39 -488 66 -687
85 -940 92 -178 4 -251 2 -350 -11 -284 -38 -515 -158 -726 -379 -171 -178
-288 -404 -584 -1126 -249 -610 -376 -892 -450 -1002 -105 -155 -314 -315
-583 -448 -128 -63 -527 -233 -1082 -461 -263 -108 -486 -216 -582 -282 -90
-61 -302 -270 -385 -378 -238 -314 -258 -581 -123 -1660 113 -901 125 -1131
71 -1315 -66 -221 -196 -428 -641 -1020 -746 -992 -769 -1035 -796 -1445 -26
-380 25 -555 262 -910 54 -80 167 -236 251 -347 648 -853 731 -970 828 -1168
106 -216 137 -375 127 -654 -6 -167 -19 -283 -82 -751 -124 -918 -135 -1252
-50 -1505 69 -207 238 -446 409 -579 214 -167 461 -287 1256 -608 417 -168
637 -268 742 -339 89 -60 340 -310 398 -395 86 -129 165 -305 476 -1052 195
-469 301 -697 382 -822 146 -226 289 -353 532 -475 309 -155 490 -162 1380
-50 1112 139 1401 136 1710 -20 161 -81 343 -214 1270 -926 214 -164 286 -212
419 -278 188 -95 352 -139 546 -148 182 -8 363 23 568 98 158 57 262 129 942
649 304 233 494 371 682 494 321 211 434 243 838 233 237 -5 363 -17 765 -68
129 -17 318 -41 420 -54 324 -41 520 -58 695 -58 154 0 179 2 267 26 256 70
498 215 686 411 160 167 213 272 532 1056 240 589 368 869 468 1021 62 95 164
204 251 268 150 111 432 254 811 411 925 385 1050 441 1223 557 236 157 401
379 496 669 48 148 56 218 55 459 -1 241 -9 323 -84 920 -77 617 -84 696 -85
955 0 190 3 251 18 319 21 99 67 217 110 286 75 120 300 435 526 735 135 179
294 390 354 470 147 196 294 418 344 521 82 167 103 280 103 539 0 199 -11
293 -51 415 -73 230 -188 401 -840 1260 -157 207 -327 444 -405 568 -122 192
-164 361 -164 665 0 242 16 400 119 1207 65 507 81 794 52 955 -44 245 -175
488 -365 675 -187 185 -415 321 -746 447 -501 191 -623 238 -777 304 -422 180
-628 308 -825 512 -183 189 -227 272 -503 956 -374 930 -455 1086 -680 1310
-406 406 -714 443 -2135 251 -457 -61 -534 -69 -720 -69 -235 0 -368 31 -564
132 -149 76 -332 205 -878 615 -946 710 -955 715 -1463 722 -148 2 -286 0
-305 -4z m4685 -6845 c279 -47 484 -155 695 -366 204 -204 334 -443 369 -680
19 -121 30 -426 20 -522 -19 -191 -115 -367 -427 -787 -229 -309 -424 -549
-572 -706 -47 -49 -146 -167 -220 -261 -74 -94 -250 -310 -391 -480 -140 -170
-439 -534 -664 -809 -224 -275 -438 -534 -474 -575 -37 -41 -96 -111 -131
-155 -126 -156 -837 -1024 -1070 -1305 -130 -157 -362 -438 -515 -625 -986
-1202 -1071 -1291 -1374 -1441 -178 -88 -302 -114 -541 -114 -494 0 -683 96
-1205 614 -111 111 -604 622 -1096 1136 -492 514 -1011 1056 -1154 1205 -599
621 -754 791 -854 938 -92 135 -168 346 -191 529 -23 184 -7 449 36 613 24 89
114 268 185 368 363 510 1046 712 1612 479 164 -67 235 -114 394 -263 175
-162 766 -756 1118 -1124 394 -412 984 -1013 1016 -1036 l29 -21 76 74 c146
140 347 378 1064 1253 889 1086 2112 2573 2629 3195 382 460 532 610 738 733
118 71 276 125 429 146 93 13 358 6 469 -13z"/>
</g>
</svg>
